<?xml version="1.0"?>
<svg xmlns="http://www.w3.org/2000/svg" xmlns:xlink="http://www.w3.org/1999/xlink" xmlns:svgjs="http://svgjs.com/svgjs" version="1.1" width="512" height="512" x="0" y="0" viewBox="0 0 351.744 351.744" style="enable-background:new 0 0 512 512" xml:space="preserve" class=""><g>
<g xmlns="http://www.w3.org/2000/svg">
	<g>
		<path d="M291.889,8.704c0-0.512-0.512-1.024-1.024-1.024l-7.68-0.512l-3.072-6.656C280.113,0,279.601,0,279.089,0    c-0.512,0-1.024,0.512-1.024,0.512l-3.584,6.656l-7.168,1.024c-0.512,0-1.024,0.512-1.024,1.024s0,1.024,0.512,1.536l4.608,4.608    l-1.536,7.168c0,0.512,0,1.024,0.512,1.024c0.512,0,1.024,0.512,1.536,0l6.656-3.584l6.656,3.584h0.512c0.512,0,0.512,0,0.512,0    c0.512-0.512,0.512-0.512,0.512-1.024l-1.024-7.168l5.632-5.12C291.889,9.728,291.889,9.216,291.889,8.704z" fill="#eb045b" data-original="#000000" style="" class=""/>
	</g>
</g>
<g xmlns="http://www.w3.org/2000/svg">
	<g>
		<path d="M43.569,60.928l-6.144-3.584l-1.024-7.168c0-0.512-0.512-1.024-1.024-1.024c-0.512,0-1.024,0-1.536,0.512l-5.12,5.632    l-7.168-1.024c-0.512,0-1.024,0-1.024,0.512c-0.512,0.512-0.512,1.024,0,1.536l3.072,5.632l-3.584,6.656c0,0.512,0,1.024,0,1.536    c0,0.512,1.024,0.512,1.024,0.512l7.168-1.536l5.12,5.12c0,0,0.512,0.512,1.024,0.512h0.512c0.512,0,1.024-0.512,1.024-1.024    l1.024-7.168l6.656-3.584c0.512,0,0.512-0.512,0.512-1.024C44.081,61.44,43.569,60.928,43.569,60.928z" fill="#eb045b" data-original="#000000" style="" class=""/>
	</g>
</g>
<g xmlns="http://www.w3.org/2000/svg">
	<g>
		<path d="M342.064,281.6l-6.144-4.096l-0.512-7.68c0-0.512-0.512-1.024-0.512-1.024c-0.512,0-1.024,0-1.536,0l-5.632,4.608    l-7.168-2.048c-0.512,0-1.024,0-1.536,0.512c-0.512,0.512-0.512,1.024,0,1.536l2.56,6.656l-4.096,6.144    c-0.512,0.512-0.512,1.024,0,1.536c0,0.512,0.512,0.512,1.024,0.512l7.68-0.512l4.608,5.632c0,0.512,0.512,0.512,1.024,0.512    c0,0,0,0,0.512,0c0.512,0,1.024-0.512,1.024-1.024l2.048-7.168l7.168-2.56c0.512,0,1.024-0.512,1.024-1.024    C342.577,282.112,342.577,281.6,342.064,281.6z" fill="#eb045b" data-original="#000000" style="" class=""/>
	</g>
</g>
<g xmlns="http://www.w3.org/2000/svg">
	<g>
		<path d="M33.84,226.304c0-0.512,0-1.024-0.512-1.024l-6.144-4.096l-0.512-7.68c0-0.512-0.512-1.024-0.512-1.024    c-0.512,0-1.024,0-1.536,0l-5.632,4.608l-7.168-1.536c-0.512,0-1.024,0-1.536,0.512c-0.512,0.512-0.512,1.024,0,1.536l2.56,6.656    L8.753,230.4c-0.512,0.512-0.512,1.024,0,1.536c0,0.512,0.512,0.512,1.024,0.512l7.68-0.512l4.608,5.632    c0,0.512,0.512,0.512,1.024,0.512c0,0,0,0,0.512,0c0.512,0,1.024-0.512,1.024-1.024l2.048-7.168l7.168-2.56    C33.84,227.328,33.84,226.816,33.84,226.304z" fill="#eb045b" data-original="#000000" style="" class=""/>
	</g>
</g>
<g xmlns="http://www.w3.org/2000/svg">
	<g>
		<path d="M72.241,332.8c-1.024,0-1.024-0.512-1.536-0.512l-7.68-1.536l-3.072-6.656c0-0.512-0.512-0.512-1.024-0.512    c-0.512,0-1.024,0.512-1.024,0.512l-3.584,6.656l-7.168,1.024c-0.512,0-1.024,0.512-1.024,1.024c0,0.512,0,1.024,0.512,1.536    l5.12,5.12l-1.536,7.168c0,0.512,0,1.024,0.512,1.024c0.512,0.512,1.024,0.512,1.536,0l6.656-3.584l6.656,3.584h0.512    c0.512,0,0.512,0,0.512,0c0.512-0.512,0.512-0.512,0.512-1.024l-1.024-7.168l5.632-5.12    C72.241,333.824,72.241,333.312,72.241,332.8z" fill="#eb045b" data-original="#000000" style="" class=""/>
	</g>
</g>
<g xmlns="http://www.w3.org/2000/svg">
	<g>
		<path d="M174.641,0c-3.072,0-5.12,2.048-5.12,5.12v143.872c0,3.072,2.56,5.12,5.12,5.12c3.072,0,5.12-2.048,5.12-5.12V5.12    C179.761,2.048,177.713,0,174.641,0z" fill="#eb045b" data-original="#000000" style="" class=""/>
	</g>
</g>
<g xmlns="http://www.w3.org/2000/svg">
	<g>
		<path d="M174.641,226.304c-3.072,0-5.12,2.048-5.12,5.12v115.2c0,3.072,2.048,5.12,5.12,5.12c3.072,0,5.12-2.048,5.12-5.12v-115.2    C179.761,228.352,177.713,226.304,174.641,226.304z" fill="#eb045b" data-original="#000000" style="" class=""/>
	</g>
</g>
<g xmlns="http://www.w3.org/2000/svg">
	<g>
		<path d="M162.353,130.048l-21.504-59.904c-1.024-2.56-4.096-4.096-6.656-3.072c-2.56,1.024-3.584,4.096-2.56,6.656l21.504,59.904    c0.512,2.048,2.56,3.584,4.608,3.584c0.512,0,1.024,0,1.536-0.512C161.841,135.68,163.377,132.608,162.353,130.048z" fill="#eb045b" data-original="#000000" style="" class=""/>
	</g>
</g>
<g xmlns="http://www.w3.org/2000/svg">
	<g>
		<path d="M133.681,52.736l-7.68-18.432c-1.024-2.56-4.096-4.096-6.656-3.072s-4.096,4.096-3.072,6.656l7.68,18.944    c1.024,2.048,2.56,3.072,4.608,3.072c0.512,0,1.024,0,2.048-0.512C133.169,58.368,134.705,55.296,133.681,52.736z" fill="#eb045b" data-original="#000000" style="" class=""/>
	</g>
</g>
<g xmlns="http://www.w3.org/2000/svg">
	<g>
		<path d="M217.137,286.72l-27.648-78.336c-1.024-2.56-4.096-4.096-6.656-3.072c-2.56,1.024-4.096,4.096-3.072,6.656l28.16,78.336    c0.512,2.048,2.56,3.584,4.608,3.584c0.512,0,1.024,0,1.536-0.512C216.625,292.352,218.161,289.28,217.137,286.72z" fill="#eb045b" data-original="#000000" style="" class=""/>
	</g>
</g>
<g xmlns="http://www.w3.org/2000/svg">
	<g>
		<path d="M167.473,164.352L75.313,52.224c-2.048-2.048-5.12-2.56-7.168-0.512c-2.048,2.048-2.56,5.12-0.512,7.168l92.16,111.616    c1.024,1.024,2.56,2.048,4.096,2.048c1.024,0,2.048-0.512,3.072-1.024C169.009,169.472,169.521,166.4,167.473,164.352z" fill="#eb045b" data-original="#000000" style="" class=""/>
	</g>
</g>
<g xmlns="http://www.w3.org/2000/svg">
	<g>
		<path d="M281.648,308.224l-71.68-88.064c-2.048-2.048-5.12-2.56-7.168-0.512c-2.048,2.048-2.56,5.12-0.512,7.168l71.68,87.552    c1.024,1.024,2.56,2.048,4.096,2.048c1.024,0,2.048-0.512,3.072-1.024C283.185,313.344,283.697,310.272,281.648,308.224z" fill="#eb045b" data-original="#000000" style="" class=""/>
	</g>
</g>
<g xmlns="http://www.w3.org/2000/svg">
	<g>
		<path d="M130.097,147.456L59.441,104.96c-2.56-1.536-5.632-0.512-7.168,1.536c-1.536,3.072-1.024,6.144,1.536,7.68l70.656,42.496    c1.024,0.512,1.536,0.512,2.56,0.512c1.536,0,3.584-1.024,4.608-2.56C133.169,152.064,132.145,148.992,130.097,147.456z" fill="#eb045b" data-original="#000000" style="" class=""/>
	</g>
</g>
<g xmlns="http://www.w3.org/2000/svg">
	<g>
		<path d="M301.105,251.904l-115.2-68.608c-2.56-1.536-5.632-0.512-7.168,1.536c-1.536,2.56-0.512,5.632,1.536,7.168l114.688,68.608    c1.024,0.512,1.536,0.512,2.56,0.512c1.536,0,3.584-1.024,4.608-2.56C304.176,256.512,303.665,253.44,301.105,251.904z" fill="#eb045b" data-original="#000000" style="" class=""/>
	</g>
</g>
<g xmlns="http://www.w3.org/2000/svg">
	<g>
		<path d="M128.561,166.4L14.385,143.872c-2.56-0.512-5.632,1.024-6.144,4.096c-0.512,3.072,1.024,5.632,4.096,6.144l114.176,22.528    c0.512,0,0.512,0,1.024,0c2.56,0,4.608-1.536,5.12-4.096C133.169,169.984,131.633,166.912,128.561,166.4z" fill="#eb045b" data-original="#000000" style="" class=""/>
	</g>
</g>
<g xmlns="http://www.w3.org/2000/svg">
	<g>
		<path d="M326.192,206.848l-99.328-19.456c-3.072-0.512-5.632,1.024-6.144,4.096c-0.512,2.56,1.024,5.632,4.096,6.144    l99.328,19.456c0.512,0,0.512,0,1.024,0c2.56,0,4.608-1.536,5.12-4.096C330.801,210.432,329.264,207.36,326.192,206.848z" fill="#eb045b" data-original="#000000" style="" class=""/>
	</g>
</g>
<g xmlns="http://www.w3.org/2000/svg">
	<g>
		<path d="M274.993,160.768l-69.632,10.24c-2.56,0.512-4.608,3.072-4.096,5.632c0.512,2.56,2.56,4.608,5.12,4.608h0.512    l69.632-10.24c2.56-1.024,4.096-3.584,4.096-6.144C280.113,162.304,277.553,160.256,274.993,160.768z" fill="#eb045b" data-original="#000000" style="" class=""/>
	</g>
</g>
<g xmlns="http://www.w3.org/2000/svg">
	<g>
		<path d="M154.161,183.808c-0.512-2.56-3.072-4.608-5.632-4.096l-81.92,11.776c-2.56,0.512-4.608,3.072-4.096,5.632    c0.512,2.56,2.56,4.608,5.12,4.608h0.512l81.92-12.288C152.625,188.928,154.673,186.368,154.161,183.808z" fill="#eb045b" data-original="#000000" style="" class=""/>
	</g>
</g>
<g xmlns="http://www.w3.org/2000/svg">
	<g>
		<path d="M306.225,161.28c-0.512-2.56-3.072-4.608-5.632-4.096l-6.144,1.024c-2.56,0.512-4.608,3.072-4.096,5.632    c0.512,2.56,2.56,4.608,5.12,4.608c0-0.512,0-0.512,0.512-0.512l6.144-1.024C304.689,166.4,306.736,163.84,306.225,161.28z" fill="#eb045b" data-original="#000000" style="" class=""/>
	</g>
</g>
<g xmlns="http://www.w3.org/2000/svg">
	<g>
		<path d="M54.833,198.656c-0.512-2.56-3.072-4.608-5.632-4.096l-6.144,0.512c-2.56,0.512-4.608,3.072-4.096,5.632    c0.512,2.56,2.56,4.608,5.12,4.608h0.512l6.144-1.024C53.297,203.776,55.345,201.216,54.833,198.656z" fill="#eb045b" data-original="#000000" style="" class=""/>
	</g>
</g>
<g xmlns="http://www.w3.org/2000/svg">
	<g>
		<path d="M322.609,100.864c-1.536-2.56-4.608-3.584-7.168-2.048l-95.744,51.712c-2.56,1.536-3.584,4.608-2.048,7.168    c1.024,1.536,2.56,2.56,4.608,2.56c1.024,0,1.536,0,2.56-0.512l95.744-51.712C323.121,106.496,324.145,103.424,322.609,100.864z" fill="#eb045b" data-original="#000000" style="" class=""/>
	</g>
</g>
<g xmlns="http://www.w3.org/2000/svg">
	<g>
		<path d="M136.753,202.24c-1.536-2.56-4.608-3.584-7.168-2.048L33.84,251.904c-2.56,1.536-3.584,4.608-2.048,7.168    c1.024,1.536,2.56,2.56,4.608,2.56c1.024,0,1.536,0,2.56-0.512l95.744-51.712C137.265,207.872,138.289,204.8,136.753,202.24z" fill="#eb045b" data-original="#000000" style="" class=""/>
	</g>
</g>
<g xmlns="http://www.w3.org/2000/svg">
	<g>
		<path d="M272.433,72.192c-2.048-2.048-5.12-1.536-7.168,0.512l-83.456,92.672c-2.048,2.048-1.536,5.12,0.512,7.168    c1.024,0.512,2.048,1.024,3.584,1.024s2.56-0.512,3.584-1.536l83.456-92.672C274.993,77.312,274.48,74.24,272.433,72.192z" fill="#eb045b" data-original="#000000" style="" class=""/>
	</g>
</g>
<g xmlns="http://www.w3.org/2000/svg">
	<g>
		<path d="M170.545,185.344c-2.048-2.048-5.12-1.536-7.168,0.512l-83.968,92.16c-2.048,2.048-1.536,5.12,0.512,7.168    c1.024,1.024,2.048,1.536,3.584,1.536c1.536,0,2.56-0.512,3.584-1.536l83.456-92.672    C172.593,190.464,172.593,187.392,170.545,185.344z" fill="#eb045b" data-original="#000000" style="" class=""/>
	</g>
</g>
<g xmlns="http://www.w3.org/2000/svg">
	<g>
		<path d="M76.337,290.816c-2.048-2.56-5.12-2.048-7.168,0l-9.216,10.24c-2.048,2.048-1.536,5.12,0.512,7.168    c1.024,1.024,2.048,1.536,3.584,1.536c1.536,0,2.56-0.512,3.584-1.536l9.216-10.24C78.897,295.936,78.385,292.864,76.337,290.816z    " fill="#eb045b" data-original="#000000" style="" class=""/>
	</g>
</g>
<g xmlns="http://www.w3.org/2000/svg">
	<g>
		<path d="M295.473,46.592c-2.048-2.048-5.12-1.536-7.168,0.512l-9.216,9.728c-2.048,2.048-1.536,5.12,0.512,7.168    c1.024,1.024,2.048,1.536,3.584,1.536s2.56-0.512,3.584-1.536l9.216-10.24C298.033,51.712,297.52,48.64,295.473,46.592z" fill="#eb045b" data-original="#000000" style="" class=""/>
	</g>
</g>
<g xmlns="http://www.w3.org/2000/svg">
	<g>
		<path d="M238.641,25.6c-2.56-1.024-5.632,0-6.656,2.56l-34.304,83.968c-1.536,3.072,0,5.632,2.56,6.656    c0.512,0.512,1.536,0.512,2.048,0.512c2.048,0,4.096-1.024,4.608-3.072l34.304-83.968C242.225,29.696,241.201,26.624,238.641,25.6    z" fill="#eb045b" data-original="#000000" style="" class=""/>
	</g>
</g>
<g xmlns="http://www.w3.org/2000/svg">
	<g>
		<path d="M165.425,210.432c-2.56-1.024-5.632,0-6.656,2.56l-41.984,101.376c-1.024,2.56,0,5.632,2.56,6.656    c0.512,0.512,1.536,0.512,2.048,0.512c2.048,0,4.096-1.024,4.608-3.072l41.984-101.376    C169.521,214.528,167.985,211.968,165.425,210.432z" fill="#eb045b" data-original="#000000" style="" class=""/>
	</g>
</g>
<g xmlns="http://www.w3.org/2000/svg">
</g>
<g xmlns="http://www.w3.org/2000/svg">
</g>
<g xmlns="http://www.w3.org/2000/svg">
</g>
<g xmlns="http://www.w3.org/2000/svg">
</g>
<g xmlns="http://www.w3.org/2000/svg">
</g>
<g xmlns="http://www.w3.org/2000/svg">
</g>
<g xmlns="http://www.w3.org/2000/svg">
</g>
<g xmlns="http://www.w3.org/2000/svg">
</g>
<g xmlns="http://www.w3.org/2000/svg">
</g>
<g xmlns="http://www.w3.org/2000/svg">
</g>
<g xmlns="http://www.w3.org/2000/svg">
</g>
<g xmlns="http://www.w3.org/2000/svg">
</g>
<g xmlns="http://www.w3.org/2000/svg">
</g>
<g xmlns="http://www.w3.org/2000/svg">
</g>
<g xmlns="http://www.w3.org/2000/svg">
</g>
</g></svg>
